<?xml version="1.0" encoding="utf-8"?>
<!-- Svg Vector Icons : http://www.onlinewebfonts.com/icon -->
<!DOCTYPE svg PUBLIC "-//W3C//DTD SVG 1.1//EN" "http://www.w3.org/Graphics/SVG/1.1/DTD/svg11.dtd">
<svg version="1.1" xmlns="http://www.w3.org/2000/svg" xmlns:xlink="http://www.w3.org/1999/xlink" x="0px" y="0px" viewBox="0 0 1000 1000" enable-background="new 0 0 1000 1000" xml:space="preserve">
<metadata> Svg Vector Icons : http://www.onlinewebfonts.com/icon </metadata>
<g><g transform="translate(0.000000,512.000000) scale(0.100000,-0.100000)"><path d="M4823.9,1695.3L1501.1-1631.4L800.5-3032.5C383.3-3868.9,100-4456.5,100-4489.1c0-74.6,218.2-290.9,292.8-290.9c30.6,0,639.3,292.9,1454.7,700.5l1401.1,700.6L6575.3-56.1C9731.6,3100.2,9900,3272.5,9900,3335.6s-51.7,118.7-809.6,876.6c-756.1,756.1-811.6,807.7-874.7,807.7S7976.4,4847.7,4823.9,1695.3z M8876,3986.4l650.8-650.8L9253,3063.8l-271.8-273.7l-654.6,654.6l-656.5,656.5l268,268c147.4,147.4,271.8,268,277.5,268S8518,4344.3,8876,3986.4z M8110.4,3220.8l650.8-650.8L8564,2374.8l-195.2-197.1l-654.6,654.6l-656.5,656.5l191.4,191.4c105.3,105.3,195.2,191.4,201,191.4S7752.4,3578.7,8110.4,3220.8z M7497.9,2608.3l650.8-650.8l-2494-2494L3162.5-3028.6l-654.6,656.5l-656.5,654.6L4339.6,770.8c1368.6,1368.6,2492.1,2488.3,2497.9,2488.3S7139.9,2966.2,7497.9,2608.3z M2289.7-2596.1l610.6-610.6l-578-290.9c-319.6-158.9-583.8-287.1-585.7-283.3c-3.8,3.8-34.4,118.7-70.8,254.6l-63.2,248.8l-248.8,63.2c-135.9,36.4-250.7,67-254.6,70.8c-5.7,5.7,566.6,1158,576.1,1158C1677.2-1985.5,1954.7-2261.1,2289.7-2596.1z M1395.8-3700.5c23-93.8,44-185.7,44-202.9c0-24.9-130.2-99.5-497.7-283.3l-497.7-248.8l252.7,503.4l250.7,505.3l202.9-51.7l201-49.8L1395.8-3700.5z"/></g></g>
</svg>